# xmcd
#
# Track frame offsets: 
#        150
#        19320
#        36113
#        49217
#        64630
#        80612
#        99017
#        112948
#        126158
#        140257
#        152248
#        167549
#
# Disc length: 2467 seconds
#
# Revision: 0
# Processed by: cddbd v1.5.2PL0 Copyright (c) Steve Scherf et al.
# Submitted via: ExactAudioCopy v1.0b3
#
DISCID=9209a10c
DTITLE=Garth Brooks - Midnight Fire
DYEAR=2016
DGENRE=Country
TTITLE0=Shameless
TTITLE1=The Red Strokes
TTITLE2=She's Every Woman
TTITLE3=What She's Doing Now
TTITLE4=In Another's Eyes (The Duet with Trisha Yearwood)
TTITLE5=One Night a Day
TTITLE6=A Friend To Me
TTITLE7=Anonymous
TTITLE8=Victim of the Game
TTITLE9=Which One of Them
TTITLE10=More Than a Memory
TTITLE11=To Make You Feel My Love
EXTD=
EXTT0=
EXTT1=
EXTT2=
EXTT3=
EXTT4=
EXTT5=
EXTT6=
EXTT7=
EXTT8=
EXTT9=
EXTT10=
EXTT11=
PLAYORDER=
